name rise43.5482peak65.4966fall89.1036.mot
datacolumns 19
datarows 15
range 10.02662200000000 10.04996100000000
endheader
time	ground_force1_vx	ground_force1_vy	ground_force1_vz	ground_force1_px	ground_force1_py	ground_force1_pz	ground_force2_vx	ground_force2_vy	ground_force2_vz	ground_force2_px	ground_force2_py	ground_force2_pz	ground_torque1_x	ground_torque1_y	ground_torque1_z	ground_torque2_x	ground_torque2_y	ground_torque2_z	
10.02662200000000	70.43156399999999	816.08699400000000	52.13539500000000	0.29908200000000	0.00000000000000	0.09628000000000	0.00000000000000	0.00000000000000	0.00000000000000	0.00000000000000	0.00000000000000	0.00000000000000	0.00000000000000	16.61284400000000	0.00000000000000	0.00000000000000	0.00000000000000	0.00000000000000	
10.02829500000000	69.76089300000000	817.95645999999999	52.25526600000000	0.29826700000000	0.00000000000000	0.09630000000000	0.00000000000000	0.00000000000000	0.00000000000000	0.00000000000000	0.00000000000000	0.00000000000000	0.00000000000000	16.67492700000000	0.00000000000000	0.00000000000000	0.00000000000000	0.00000000000000	
10.02995900000000	69.08162700000000	819.65423899999996	52.37240000000000	0.29745400000000	0.00000000000000	0.09632100000000	0.00000000000000	0.00000000000000	0.00000000000000	0.00000000000000	0.00000000000000	0.00000000000000	0.00000000000000	16.73779800000000	0.00000000000000	0.00000000000000	0.00000000000000	0.00000000000000	
10.03162200000000	68.39401200000000	821.18039899999997	52.48631000000000	0.29664000000000	0.00000000000000	0.09634400000000	0.00000000000000	0.00000000000000	0.00000000000000	0.00000000000000	0.00000000000000	0.00000000000000	0.00000000000000	16.80112900000000	0.00000000000000	0.00000000000000	0.00000000000000	0.00000000000000	
10.03329500000000	67.69826999999999	822.53524000000004	52.59648400000000	0.29582600000000	0.00000000000000	0.09636800000000	0.00000000000000	0.00000000000000	0.00000000000000	0.00000000000000	0.00000000000000	0.00000000000000	0.00000000000000	16.86458100000000	0.00000000000000	0.00000000000000	0.00000000000000	0.00000000000000	
10.03495700000000	66.99460900000000	823.71929999999998	52.70239100000000	0.29500900000000	0.00000000000000	0.09639500000000	0.00000000000000	0.00000000000000	0.00000000000000	0.00000000000000	0.00000000000000	0.00000000000000	0.00000000000000	16.92780300000000	0.00000000000000	0.00000000000000	0.00000000000000	0.00000000000000	
10.03662600000000	66.28322199999999	824.73335599999996	52.80348400000000	0.29418700000000	0.00000000000000	0.09642300000000	0.00000000000000	0.00000000000000	0.00000000000000	0.00000000000000	0.00000000000000	0.00000000000000	0.00000000000000	16.99043500000000	0.00000000000000	0.00000000000000	0.00000000000000	0.00000000000000	
10.03828800000000	65.56429400000000	825.57843000000003	52.89920800000000	0.29336000000000	0.00000000000000	0.09645200000000	0.00000000000000	0.00000000000000	0.00000000000000	0.00000000000000	0.00000000000000	0.00000000000000	0.00000000000000	17.05211400000000	0.00000000000000	0.00000000000000	0.00000000000000	0.00000000000000	
10.03996000000000	64.83800100000001	826.25579100000004	52.98900600000000	0.29252500000000	0.00000000000000	0.09648300000000	0.00000000000000	0.00000000000000	0.00000000000000	0.00000000000000	0.00000000000000	0.00000000000000	0.00000000000000	17.11247600000000	0.00000000000000	0.00000000000000	0.00000000000000	0.00000000000000	
10.04162300000000	64.10452100000001	826.76695600000005	53.07232400000000	0.29168100000000	0.00000000000000	0.09651600000000	0.00000000000000	0.00000000000000	0.00000000000000	0.00000000000000	0.00000000000000	0.00000000000000	0.00000000000000	17.17115800000000	0.00000000000000	0.00000000000000	0.00000000000000	0.00000000000000	
10.04328700000000	63.36403100000000	827.11369100000002	53.14861400000000	0.29082800000000	0.00000000000000	0.09655000000000	0.00000000000000	0.00000000000000	0.00000000000000	0.00000000000000	0.00000000000000	0.00000000000000	0.00000000000000	17.22780300000000	0.00000000000000	0.00000000000000	0.00000000000000	0.00000000000000	
10.04495800000000	62.61671300000000	827.29801099999997	53.21734300000000	0.28996300000000	0.00000000000000	0.09658500000000	0.00000000000000	0.00000000000000	0.00000000000000	0.00000000000000	0.00000000000000	0.00000000000000	0.00000000000000	17.28205900000000	0.00000000000000	0.00000000000000	0.00000000000000	0.00000000000000	
10.04662600000000	61.86275700000000	827.32217700000001	53.27799700000000	0.28908500000000	0.00000000000000	0.09662200000000	0.00000000000000	0.00000000000000	0.00000000000000	0.00000000000000	0.00000000000000	0.00000000000000	0.00000000000000	17.33358600000000	0.00000000000000	0.00000000000000	0.00000000000000	0.00000000000000	
10.04829200000000	61.10236500000000	827.18869500000005	53.33008100000000	0.28819300000000	0.00000000000000	0.09666000000000	0.00000000000000	0.00000000000000	0.00000000000000	0.00000000000000	0.00000000000000	0.00000000000000	0.00000000000000	17.38205800000000	0.00000000000000	0.00000000000000	0.00000000000000	0.00000000000000	
10.04996100000000	60.33575300000000	826.90031399999998	53.37313100000000	0.28728700000000	0.00000000000000	0.09670000000000	0.00000000000000	0.00000000000000	0.00000000000000	0.00000000000000	0.00000000000000	0.00000000000000	0.00000000000000	17.42716200000000	0.00000000000000	0.00000000000000	0.00000000000000	0.00000000000000	
